PathFileType	4	(X/Y/Z)	15_coords_data.trc
DataRate	CameraRate	NumFrames	NumMarkers	Units	OrigDataRate	OrigDataStartFrame	OrigNumFrames
30.0	30.0	6	21	m	30.0	29	75
Frame#	Time	THUMB_TIP	THUMB_IP	THUMB_MCP	THUMB_CMC	INDEX_TIP	INDEX_DIP	INDEX_PIP	INDEX_MCP	MIDDLE_TIP	MIDDLE_DIP	MIDDLE_PIP	MIDDLE_MCP	RING_TIP	RING_DIP	RING_PIP	RING_MCP	PINKY_TIP	PINKY_DIP	PINKY_PIP	PINKY_MCP	WRIST
X1	Y1	Z1	X2	Y2	Z2	X3	Y3	Z3	X4	Y4	Z4	X5	Y5	Z5	X6	Y6	Z6	X7	Y7	Z7	X8	Y8	Z8	X9	Y9	Z9	X10	Y10	Z10	X11	Y11	Z11	X12	Y12	Z12	X13	Y13	Z13	X14	Y14	Z14	X15	Y15	Z15	X16	Y16	Z16	X17	Y17	Z17	X18	Y18	Z18	X19	Y19	Z19	X20	Y20	Z20	X21	Y21	Z21
28	0.9333333333333333	0.0016226600408554071	-0.050254100799560546	0.9344710083007812	-0.006965010166168213	-0.027410600662231447	0.938676025390625	-0.02402050018310547	-0.0056076102256774904	0.9449459838867188	-0.02285540008544922	0.022822399139404297	0.9554439697265625	0.029536399841308594	-0.05094300079345703	0.886531005859375	0.019919700622558593	-0.03479180145263672	0.8796589965820313	0.00749232006072998	-0.016069599151611328	0.8786019897460937	-0.011810500144958496	0.00765811014175415	0.9010889892578124	0.03871820068359375	-0.04317990112304688	0.9215819702148438	0.04020669937133789	-0.03043269920349121	0.9060659790039063	0.0335349006652832	-0.008172539710998536	0.8910789794921875	0.007555739879608154	0.022935199737548827	0.9001859741210938	0.058703098297119144	-0.03353030014038086	0.9206859741210938	0.05547940063476563	-0.016167299270629883	0.9109199829101563	0.046811298370361326	0.006580319881439209	0.9041430053710937	0.023073699951171874	0.033070701599121094	0.911885986328125	0.08705110168457031	0.018444900512695313	0.9062869873046875	0.07188379669189453	0.02648889923095703	0.9115360107421875	0.0567577018737793	0.03277420043945312	0.9175490112304687	0.033652000427246094	0.03999599838256836	0.9287000122070312	-0.029183799743652344	0.060610599517822265	0.9667930297851562
29	0.9666666666666667	-0.0007332270145416261	-0.04926079940795899	0.9332260131835938	-0.008566169738769532	-0.026360099792480468	0.9390869750976563	-0.025927499771118166	-0.004835579872131348	0.9466890258789062	-0.024655300140380858	0.023621500015258787	0.9577340087890625	0.03277970123291016	-0.04493740081787109	0.880739013671875	0.020582599639892576	-0.02877829933166504	0.877448974609375	0.006273320198059082	-0.011438699722290039	0.8795280151367187	-0.013755599975585937	0.009542340278625489	0.9033800048828124	0.055674301147460935	-0.03920309829711914	0.9011749877929688	0.04800260162353515	-0.02172610092163086	0.892489990234375	0.033002201080322265	0.000678951025009155	0.8868690185546875	0.0040831298828125	0.02653790092468262	0.902364013671875	0.06647969818115235	-0.02346699905395508	0.9083670043945312	0.05854219818115235	-0.005364230155944824	0.9027009887695312	0.04524169921875	0.015715999603271483	0.901156982421875	0.01898819923400879	0.0371343994140625	0.91372998046875	0.08418560028076172	0.027665399551391603	0.9061790161132812	0.06843939971923828	0.034973499298095706	0.9122449951171875	0.05318930053710937	0.04028960037231445	0.91847900390625	0.02976499938964844	0.04536309814453125	0.930218017578125	-0.033137901306152344	0.060958599090576174	0.9697490234375
30	1.0	-0.0026227800846099847	-0.04868980026245117	0.9326500244140625	-0.010197099685668945	-0.02580900001525879	0.9400640258789063	-0.027446800231933594	-0.004705709934234619	0.9491519775390626	-0.026861799240112304	0.024177799224853514	0.9610579833984375	0.03468740081787109	-0.03806940078735352	0.8751119995117187	0.02076810073852539	-0.02279199981689453	0.8752509765625	0.00521845006942749	-0.0073948798179626464	0.8807069702148438	-0.015002499580383301	0.010995100021362305	0.9066259765625	0.06294449996948243	-0.02615690040588379	0.881927978515625	0.05001810073852539	-0.009342100143432617	0.8802999877929687	0.030464799880981445	0.009940019607543945	0.8833189697265625	0.001261780023574829	0.029513599395751954	0.9053389892578125	0.07156739807128906	-0.010049599647521973	0.8949340209960938	0.05951039886474609	0.006955780029296875	0.8950189819335937	0.04298490142822266	0.02486910057067871	0.8989390258789063	0.016025499343872072	0.04054489898681641	0.9161619873046875	0.08118160247802735	0.03620090103149414	0.9073720092773437	0.06540769958496094	0.04221969985961914	0.9135449829101563	0.04996630096435547	0.04633610153198242	0.920468994140625	0.026733600616455078	0.04959400177001953	0.9324520263671875	-0.03651369857788086	0.06039130020141602	0.9732020263671874
31	1.0333333333333334	-0.0044538798332214346	-0.04854489898681641	0.93256298828125	-0.011685400009155274	-0.02564550018310547	0.9412509765625	-0.02872640037536621	-0.004971250057220459	0.9517540283203125	-0.028686599731445314	0.024111299514770507	0.9641820068359375	0.03472660064697266	-0.03019729995727539	0.86835302734375	0.01944499969482422	-0.016558399200439455	0.872593994140625	0.003178430080413818	-0.003285330057144165	0.8816320190429687	-0.01621489906311035	0.012127300262451172	0.9098389892578125	0.06377069854736328	-0.011064599990844727	0.869301025390625	0.04812670135498047	0.0030046100616455077	0.8732000122070313	0.026712499618530273	0.018050199508666993	0.8822420043945313	-0.001448269963264465	0.031678499221801756	0.9083150024414063	0.07194200134277344	0.004585949897766113	0.8852009887695312	0.05738639831542969	0.019071399688720705	0.8894600219726563	0.03930400085449219	0.03312279891967773	0.8976439819335937	0.01293179988861084	0.04350510025024414	0.9186389770507812	0.0777240982055664	0.04574020004272461	0.9074719848632813	0.061394798278808595	0.05007949829101563	0.9145679931640625	0.04589699935913086	0.052603801727294924	0.9218709716796875	0.023402999877929688	0.053285301208496096	0.9349520263671875	-0.0395536994934082	0.05921780014038086	0.9767890014648437
32	1.0666666666666667	-0.008308540344238282	-0.04925519943237305	0.932885986328125	-0.01383240032196045	-0.02629229927062988	0.9425590209960938	-0.030257099151611327	-0.005432789802551269	0.9543319702148437	-0.030566999435424805	0.023878700256347658	0.966927978515625	0.033361099243164063	-0.023553199768066406	0.8644879760742188	0.01740019989013672	-0.011795200347900391	0.8717880249023438	0.0010251799821853632	-0.000599911987781524	0.883364013671875	-0.017953500747680665	0.01290310001373291	0.91293701171875	0.0605281982421875	0.002386559963226318	0.8593049926757812	0.04337269973754883	0.01322760009765625	0.868468994140625	0.02178580093383789	0.023813499450683593	0.8821329956054688	-0.004405029773712158	0.03292570114135742	0.9115089721679688	0.06837249755859375	0.01781399917602539	0.877427001953125	0.052596500396728516	0.029171199798583985	0.8855850219726562	0.034067901611328125	0.03966690063476563	0.8976019897460937	0.009327540397644043	0.045861900329589846	0.920698974609375	0.07263619995117188	0.055237300872802736	0.9066110229492188	0.05648709869384766	0.05772510147094727	0.9145430297851562	0.04122040176391602	0.058451400756835935	0.9227139892578125	0.019368200302124022	0.056484001159667965	0.93664697265625	-0.042770099639892575	0.058077499389648436	0.9796110229492188
33	1.1	-0.020487899780273437	-0.05148789978027344	0.9318770141601562	-0.02064030075073242	-0.028285900115966798	0.9432849731445313	-0.033910800933837894	-0.006764860153198242	0.9563790283203125	-0.033906898498535155	0.023359199523925782	0.970052001953125	0.029968599319458007	-0.018339099884033202	0.8609249877929688	0.014083700180053711	-0.008417420387268067	0.8713099975585937	-0.0016470099687576289	0.000941181004047393	0.8852459716796875	-0.019060300827026366	0.012598600387573242	0.9160339965820312	0.05307789993286133	0.014075799942016602	0.8506240234375	0.03638339996337891	0.021221200942993165	0.864593017578125	0.01614389991760254	0.027639499664306642	0.8824099731445313	-0.006728909969329834	0.03270169830322266	0.9144140014648438	0.06210810089111328	0.03010460090637207	0.8698410034179688	0.04607529830932617	0.03790800094604492	0.8821209716796875	0.028120000839233397	0.04474380111694336	0.8970440063476562	0.005941889762878418	0.04718529891967774	0.92260498046875	0.0661364974975586	0.06625140380859375	0.9044400024414062	0.05039139938354492	0.0656156997680664	0.9141890258789063	0.03586920166015625	0.06372480010986328	0.9234970092773438	0.015097999572753906	0.05838840103149414	0.9382150268554688	-0.04616899871826172	0.056835899353027346	0.9822839965820312
